<?xml version="1.0" encoding="utf-8"?>
<!-- Generator: Adobe Illustrator 23.0.1, SVG Export Plug-In . SVG Version: 6.00 Build 0)  -->
<svg version="1.1" id="_x7C_CAR__x7C__Booking" xmlns="http://www.w3.org/2000/svg" xmlns:xlink="http://www.w3.org/1999/xlink"
	 x="0px" y="0px" viewBox="0 0 350.3 57.6" style="enable-background:new 0 0 350.3 57.6;" xml:space="preserve">
<style type="text/css">
	.st0{opacity:0.96;}
	.st1{fill:#fff;}
</style>
<g class="st0">
	<path class="st1" d="M58.62,13.12c0.47,0,0.84,0.18,1.11,0.53s0.37,0.76,0.29,1.23l-0.7,2.81c-0.08,0.31-0.25,0.57-0.53,0.76
		s-0.57,0.29-0.88,0.29h-2.34c1.72,1.48,2.58,3.36,2.58,5.62V30c0,1.88-0.62,3.52-1.88,4.92v6.33c0,1.02-0.37,1.89-1.11,2.64
		S53.54,45,52.53,45h-3.75c-1.02,0-1.89-0.37-2.64-1.11s-1.11-1.62-1.11-2.64V37.5h-30v3.75c0,1.02-0.37,1.89-1.11,2.64
		S12.29,45,11.28,45H7.53c-1.02,0-1.89-0.37-2.64-1.11s-1.11-1.62-1.11-2.64v-6.33C2.53,33.52,1.9,31.88,1.9,30v-5.62
		c0-2.27,0.86-4.14,2.58-5.62H2.14c-0.31,0-0.61-0.1-0.88-0.29s-0.45-0.45-0.53-0.76l-0.7-2.81c-0.08-0.47,0.02-0.88,0.29-1.23
		s0.64-0.53,1.11-0.53h7.03l1.99-4.92c0.94-2.5,2.52-4.49,4.75-5.98S19.91,0,22.64,0h14.77c2.73,0,5.21,0.74,7.44,2.23
		S48.66,5.7,49.6,8.2l1.99,4.92H58.62z M11.28,30h0.82c1.56,0,2.66-0.08,3.28-0.23c1.02-0.23,1.52-0.78,1.52-1.64
		c0-1.17-0.66-2.4-1.99-3.69s-2.54-1.93-3.63-1.93s-1.99,0.35-2.7,1.05s-1.05,1.6-1.05,2.7s0.35,1.99,1.05,2.7S10.18,30,11.28,30z
		 M17.37,11.02l-2.34,5.86h30l-2.34-5.86C42.29,10,41.61,9.16,40.63,8.5s-2.01-1-3.11-1H22.64c-1.17,0-2.25,0.33-3.22,1
		S17.76,10,17.37,11.02z M48.78,30c1.09,0,1.99-0.35,2.7-1.05s1.05-1.6,1.05-2.7s-0.35-1.99-1.05-2.7s-1.6-1.05-2.7-1.05
		s-2.3,0.64-3.63,1.93s-1.99,2.52-1.99,3.69c0,0.86,0.51,1.41,1.52,1.64C45.3,29.92,46.39,30,47.96,30H48.78z"/>
	<path class="st1" d="M92.69,45h-5.01V1.35h5.01V45z"/>
	<path class="st1" d="M138.75,45h-13.13c-1.89,0-3.25-0.42-4.06-1.27c-0.81-0.85-1.22-2.2-1.22-4.06V7.38
		c0-1.89,0.41-3.26,1.25-4.09c0.83-0.83,2.17-1.25,4.03-1.25h13.92c2.05,0,3.83,0.13,5.33,0.38c1.5,0.25,2.85,0.74,4.04,1.46
		c1.02,0.61,1.91,1.37,2.7,2.3c0.78,0.93,1.38,1.95,1.79,3.08c0.41,1.12,0.62,2.31,0.62,3.56c0,4.3-2.15,7.44-6.45,9.43
		c5.64,1.8,8.47,5.29,8.47,10.49c0,2.4-0.62,4.57-1.85,6.49s-2.89,3.34-4.98,4.26c-1.31,0.55-2.81,0.93-4.51,1.16
		S141.01,45,138.75,45z M129.05,8.58v11.1h7.97c2.17,0,3.84-0.21,5.02-0.62c1.18-0.41,2.08-1.19,2.71-2.34
		c0.49-0.82,0.73-1.74,0.73-2.75c0-2.17-0.77-3.61-2.31-4.32c-1.54-0.71-3.9-1.07-7.06-1.07H129.05z M138.1,25.93h-9.05v12.54h9.35
		c5.88,0,8.82-2.12,8.82-6.36c0-2.17-0.76-3.74-2.29-4.72S141.13,25.93,138.1,25.93z"/>
	<path class="st1" d="M192.95,29.47c0,2.38-0.37,4.58-1.11,6.59s-1.82,3.74-3.22,5.19s-3.09,2.55-5.04,3.33s-4.15,1.16-6.59,1.16
		c-2.42,0-4.6-0.39-6.53-1.17s-3.61-1.9-5.02-3.35c-1.42-1.46-2.49-3.17-3.22-5.16s-1.1-4.17-1.1-6.58c0-2.42,0.37-4.64,1.11-6.65
		c0.74-2.01,1.81-3.73,3.19-5.16c1.39-1.43,3.07-2.52,5.04-3.3c1.97-0.77,4.15-1.16,6.53-1.16c2.42,0,4.62,0.39,6.59,1.17
		c1.97,0.78,3.66,1.89,5.07,3.34c1.41,1.45,2.48,3.16,3.21,5.16S192.95,27.07,192.95,29.47z M184.92,29.47
		c0-3.26-0.72-5.8-2.15-7.62s-3.36-2.72-5.79-2.72c-1.56,0-2.94,0.41-4.13,1.22c-1.19,0.81-2.11,2.01-2.75,3.59
		s-0.97,3.43-0.97,5.54c0,2.09,0.32,3.92,0.95,5.48c0.63,1.56,1.54,2.76,2.72,3.59c1.18,0.83,2.57,1.25,4.17,1.25
		c2.42,0,4.35-0.91,5.79-2.74S184.92,32.7,184.92,29.47z"/>
	<path class="st1" d="M229.19,29.47c0,2.38-0.37,4.58-1.11,6.59s-1.82,3.74-3.22,5.19s-3.09,2.55-5.04,3.33s-4.15,1.16-6.59,1.16
		c-2.42,0-4.6-0.39-6.53-1.17s-3.61-1.9-5.02-3.35s-2.49-3.17-3.22-5.16s-1.1-4.17-1.1-6.58c0-2.42,0.37-4.64,1.11-6.65
		s1.81-3.73,3.19-5.16c1.39-1.43,3.07-2.52,5.04-3.3c1.97-0.77,4.15-1.16,6.53-1.16c2.42,0,4.62,0.39,6.59,1.17
		c1.97,0.78,3.66,1.89,5.07,3.34c1.41,1.45,2.48,3.16,3.21,5.16S229.19,27.07,229.19,29.47z M221.16,29.47
		c0-3.26-0.72-5.8-2.15-7.62s-3.36-2.72-5.79-2.72c-1.56,0-2.94,0.41-4.13,1.22c-1.19,0.81-2.11,2.01-2.75,3.59
		s-0.97,3.43-0.97,5.54c0,2.09,0.32,3.92,0.95,5.48s1.54,2.76,2.72,3.59s2.57,1.25,4.17,1.25c2.42,0,4.35-0.91,5.79-2.74
		S221.16,32.7,221.16,29.47z"/>
	<path class="st1" d="M255.41,42.07l-7.06-11.6l-4.34,4.1v6.36c0,1.54-0.41,2.73-1.22,3.56s-1.74,1.25-2.8,1.25
		c-1.23,0-2.2-0.41-2.9-1.23s-1.05-2.03-1.05-3.63V6.77c0-1.78,0.34-3.13,1.03-4.06c0.68-0.93,1.66-1.39,2.93-1.39
		c1.23,0,2.21,0.42,2.93,1.26c0.72,0.84,1.08,2.08,1.08,3.72v19.39l8.99-9.43c1.11-1.17,1.96-1.97,2.55-2.4
		c0.59-0.43,1.3-0.64,2.14-0.64c1,0,1.83,0.32,2.49,0.95c0.66,0.63,1,1.43,1,2.39c0,1.17-1.08,2.73-3.25,4.69l-4.25,3.9l8.2,12.89
		c0.61,0.96,1.04,1.68,1.3,2.18s0.4,0.97,0.4,1.42c0,1.27-0.35,2.27-1.04,3s-1.61,1.1-2.74,1.1c-0.98,0-1.73-0.26-2.26-0.79
		S256.31,43.46,255.41,42.07z"/>
	<path class="st1" d="M272.43,9.49c-1.11,0-2.07-0.34-2.86-1.03c-0.79-0.68-1.19-1.65-1.19-2.9c0-1.13,0.41-2.07,1.22-2.8
		s1.75-1.1,2.83-1.1c1.04,0,1.95,0.33,2.75,1c0.8,0.66,1.2,1.63,1.2,2.9c0,1.23-0.39,2.19-1.17,2.89
		C274.43,9.15,273.5,9.49,272.43,9.49z M276.38,17.75v23.12c0,1.6-0.38,2.81-1.14,3.63s-1.73,1.23-2.9,1.23s-2.12-0.42-2.86-1.26
		s-1.1-2.04-1.1-3.6V17.99c0-1.58,0.37-2.77,1.1-3.57c0.73-0.8,1.68-1.2,2.86-1.2s2.14,0.4,2.9,1.2
		C276,15.22,276.38,16.33,276.38,17.75z"/>
	<path class="st1" d="M291.91,17.64v0.97c1.41-1.86,2.94-3.22,4.61-4.09c1.67-0.87,3.59-1.3,5.76-1.3c2.11,0,3.99,0.46,5.65,1.38
		c1.66,0.92,2.9,2.22,3.72,3.9c0.53,0.98,0.87,2.03,1.03,3.16s0.23,2.58,0.23,4.34v14.88c0,1.6-0.37,2.81-1.1,3.63
		s-1.68,1.23-2.86,1.23c-1.19,0-2.16-0.42-2.9-1.26s-1.11-2.04-1.11-3.6V27.54c0-2.64-0.37-4.65-1.1-6.05
		c-0.73-1.4-2.19-2.09-4.38-2.09c-1.43,0-2.72,0.42-3.9,1.27s-2.03,2.02-2.58,3.5c-0.39,1.19-0.59,3.42-0.59,6.68v10.02
		c0,1.62-0.38,2.84-1.13,3.65s-1.72,1.22-2.92,1.22c-1.15,0-2.1-0.42-2.84-1.26s-1.11-2.04-1.11-3.6V17.75c0-1.52,0.33-2.66,1-3.41
		c0.66-0.75,1.57-1.13,2.72-1.13c0.7,0,1.34,0.17,1.9,0.5c0.57,0.33,1.02,0.83,1.36,1.49C291.74,15.87,291.91,16.68,291.91,17.64z"
		/>
	<path class="st1" d="M350.3,19.07V42.3c0,2.66-0.28,4.94-0.85,6.86s-1.47,3.5-2.72,4.75s-2.89,2.18-4.91,2.78s-4.54,0.91-7.54,0.91
		c-2.75,0-5.21-0.39-7.38-1.16s-3.84-1.77-5.01-2.99s-1.76-2.48-1.76-3.76c0-0.98,0.33-1.77,1-2.39s1.46-0.92,2.4-0.92
		c1.17,0,2.2,0.52,3.08,1.55c0.43,0.53,0.87,1.06,1.33,1.6s0.97,1,1.52,1.38s1.23,0.66,2.01,0.85s1.68,0.28,2.7,0.28
		c2.07,0,3.68-0.29,4.82-0.86s1.94-1.38,2.4-2.42s0.73-2.14,0.81-3.33s0.14-3.08,0.18-5.7c-1.23,1.72-2.65,3.03-4.26,3.93
		S334.57,45,332.34,45c-2.68,0-5.01-0.68-7.02-2.05s-3.54-3.28-4.61-5.74s-1.61-5.3-1.61-8.53c0-2.4,0.33-4.57,0.98-6.5
		s1.59-3.56,2.8-4.89c1.21-1.33,2.61-2.33,4.19-3s3.32-1.01,5.21-1.01c2.27,0,4.23,0.44,5.89,1.3c1.66,0.87,3.2,2.23,4.63,4.09
		v-1.08c0-1.39,0.34-2.46,1.03-3.22s1.56-1.14,2.64-1.14c1.54,0,2.57,0.5,3.08,1.51C350.05,15.73,350.3,17.18,350.3,19.07z
		 M327.13,29.21c0,3.24,0.71,5.69,2.12,7.35s3.25,2.49,5.49,2.49c1.33,0,2.58-0.36,3.76-1.07s2.14-1.79,2.89-3.22
		s1.11-3.18,1.11-5.23c0-3.26-0.72-5.8-2.15-7.62s-3.33-2.72-5.67-2.72c-2.29,0-4.12,0.87-5.49,2.61S327.13,26.01,327.13,29.21z"/>
</g>
</svg>
